<?xml version="1.0" ?><!DOCTYPE svg  PUBLIC '-//W3C//DTD SVG 1.1//EN'  'http://www.w3.org/Graphics/SVG/1.1/DTD/svg11.dtd'><svg height="126px" style="enable-background:new 0 0 124 126;" version="1.1" viewBox="0 0 124 126" width="124px" xml:space="preserve" xmlns="http://www.w3.org/2000/svg" xmlns:xlink="http://www.w3.org/1999/xlink"><style type="text/css">
<![CDATA[
	.st0{fill:#EF3E42;}
	.st1{fill:#FFFFFF;}
	.st2{fill:none;}
	.st3{fill-rule:evenodd;clip-rule:evenodd;fill:#FFFFFF;}
]]>
</style><defs/><path fill="#0EB1E8" d="M110,93.7c0,10.2-8.1,18.5-18.5,18.5c-9.9,0-18.3-8.3-18.3-18.5c0-10.2,8.4-18.5,18.3-18.5c5,0,7.5,1.5,9.9,3.5V38.6H43.2  v63.6c0,10.2-8.3,18.5-18.5,18.5c-10.1,0-18.3-8.3-18.3-18.5s8.3-18.5,18.3-18.5c5,0,7.3,1.5,9.8,3.5V13.5H110V93.7L110,93.7z"/><rect class="st2" height="126" id="_x3C_Slice_x3E__100_" width="124"/></svg>